<svg id="Capa_1" enable-background="new 0 0 512 512" height="100" viewBox="0 0 512 512" width="100" 
    xmlns="http://www.w3.org/2000/svg">
    <g>
        <g>
            <path d="m79.339 20.645c0-11.402 9.243-20.645 20.645-20.645h255.427l95.935 95.935v395.42c0 11.402-9.243 20.645-20.645 20.645h-330.717c-11.402 0-20.645-9.243-20.645-20.645z" fill="#e6e2e6"/>
            <path d="m380.835 445.994h-315.03c-2.845 0-5.151-2.306-5.151-5.151v-137.137c0-2.845 2.306-5.151 5.151-5.151h315.031c2.845 0 5.151 2.306 5.151 5.151v137.137c0 2.845-2.307 5.151-5.152 5.151z" fill="#60b8ff"/>
            <path d="m65.805 445.994h315.031c2.845 0 5.151-2.306 5.151-5.151v-13.429h-325.334v13.429c0 2.845 2.307 5.151 5.152 5.151z" fill="#22a7ff"/>
            <path d="m355.411 93.87c0 11.402 9.243 20.645 20.645 20.645h75.29v-18.58l-95.935-95.935z" fill="#d8d1d7"/>
            <path d="m376.057 95.935h75.29l-95.936-95.935v75.29c0 11.402 9.244 20.645 20.646 20.645z" fill="#8c808a"/>
            <path d="m385.987 440.842c0 2.845-2.306 5.151-5.151 5.151h-301.497v18.581h301.486c2.85 0 5.161-2.311 5.161-5.161z" fill="#d8d1d7"/>
        </g>
        <g>
            <g fill="#f7f5f7">
                <path d="m268.752 327.426h-10.403c-4.276 0-7.742 3.466-7.742 7.742v78.485c0 4.276 3.466 7.742 7.742 7.742h10.403c19.479 0 35.327-15.847 35.327-35.326v-23.316c0-19.48-15.848-35.327-35.327-35.327zm19.843 58.642c0 10.941-8.901 19.842-19.843 19.842h-2.661v-63h2.661c10.941 0 19.843 8.901 19.843 19.842z"/>
                <path d="m218.88 335.168v78.485c0 4.276 3.466 7.72 7.742 7.72s7.742-3.488 7.742-7.764v-78.44c0-4.276-3.466-7.742-7.742-7.742-4.276-.001-7.742 3.465-7.742 7.741z"/>
                <path d="m333.657 413.608v-78.44c0-4.276-3.466-7.742-7.742-7.742s-7.742 3.466-7.742 7.742v78.485c0 4.276 3.466 7.72 7.742 7.72 4.277-.001 7.742-3.489 7.742-7.765z"/>
                <path d="m191.074 421.372c4.276 0 7.742-3.488 7.742-7.764v-78.44c0-3.394-2.21-6.392-5.452-7.396-3.24-1.003-6.76.22-8.677 3.02l-20.497 29.919-20.496-29.919c-1.918-2.799-5.436-4.021-8.677-3.02-3.242 1.004-5.452 4.002-5.452 7.396v78.485c0 4.276 3.466 7.72 7.742 7.72s7.742-3.488 7.742-7.764v-53.441l12.755 18.618c3.023 4.412 9.751 4.412 12.774 0l12.755-18.618v53.485c-.001 4.275 3.465 7.719 7.741 7.719z"/>
            </g>
            <path d="m320.998 125.56c0-9.324-8.312-16.846-17.592-15.921l-74.142 7.412c-8.214.821-14.409 7.666-14.409 15.921v71.226c-3.297-1.462-6.889-2.22-10.495-2.22-14.253 0-25.89 11.551-25.975 25.823-.084 14.161 11.661 26.047 25.822 26.132 14.135 0 26.132-11.622 26.132-25.868v-95.092c0-.267.2-.487.465-.514l74.143-7.412c.299-.03.567.213.567.514v69.575c-3.165-1.404-6.66-2.197-10.338-2.219-14.162-.057-26.048 11.641-26.132 25.822-.085 14.222 11.758 26.132 25.979 26.132 14.252 0 25.889-11.551 25.975-25.822v-.001c0-.011-.001-.022-.001-.033 0-.004.001-.008.001-.013zm-116.635 112.889c-.021 0-.042 0-.064 0-5.786-.034-10.465-4.77-10.43-10.556.034-5.765 4.734-10.43 10.492-10.43h.064c5.785.034 10.465 4.77 10.43 10.556-.034 5.764-4.734 10.43-10.492 10.43zm90.659-9.064c-5.745 0-10.529-4.811-10.494-10.556.032-5.644 4.836-10.566 10.555-10.43 5.785.034 10.465 4.77 10.43 10.555-.034 5.765-4.734 10.431-10.491 10.431z" fill="#8bcaff"/>
        </g>
    </g>
</svg>