<svg id="Capa_1" enable-background="new 0 0 512 512" height="100" viewBox="0 0 512 512" width="100" 
    xmlns="http://www.w3.org/2000/svg">
    <g>
        <g>
            <path d="m84.525 27.554c0-11.067 8.972-20.039 20.039-20.039h247.929l93.119 93.119v383.813c0 11.067-8.972 20.039-20.039 20.039h-321.009c-11.067 0-20.039-8.972-20.039-20.039z" fill="#e6e2e6"/>
            <path d="m382.171 440.417h-297.646v18.035h292.636c2.767 0 5.01-2.243 5.01-5.01z" fill="#d8d1d7"/>
            <path d="m66.387 297.305h315.783v143.111h-315.783z" fill="#60b8ff"/>
            <path d="m66.387 422.381h315.783v18.035h-315.783z" fill="#22a7ff"/>
            <path d="m352.493 98.63c0 11.067 8.972 20.039 20.039 20.039h73.08v-18.035l-93.119-93.119z" fill="#d8d1d7"/>
            <path d="m372.532 100.634h73.08l-93.119-93.119v73.08c0 11.067 8.972 20.039 20.039 20.039z" fill="#8c808a"/>
        </g>
        <g>
            <path d="m268.377 325.329h-10.097c-4.15 0-7.515 3.364-7.515 7.515v76.181c0 4.15 3.365 7.515 7.515 7.515h10.098c18.907 0 34.29-15.382 34.29-34.289v-22.632c-.001-18.908-15.384-34.29-34.291-34.29zm19.261 56.921c0 10.62-8.64 19.26-19.26 19.26h-2.583v-61.151h2.583c10.62 0 19.26 8.64 19.26 19.26z"/>
            <path d="m219.969 332.844v76.181c0 4.15 3.365 7.493 7.515 7.493s7.515-3.386 7.515-7.536v-76.138c0-4.15-3.365-7.515-7.515-7.515s-7.515 3.365-7.515 7.515z"/>
            <path d="m331.377 408.981v-76.138c0-4.15-3.364-7.515-7.515-7.515s-7.515 3.364-7.515 7.515v76.181c0 4.15 3.364 7.493 7.515 7.493s7.515-3.385 7.515-7.536z"/>
            <path d="m192.98 416.518c4.15 0 7.515-3.386 7.515-7.536v-76.138c0-3.294-2.145-6.204-5.292-7.178-3.145-.974-6.561.213-8.423 2.931l-19.895 29.041-19.895-29.041c-1.862-2.717-5.276-3.903-8.423-2.931-3.146.974-5.292 3.884-5.292 7.178v76.181c0 4.15 3.365 7.493 7.515 7.493s7.515-3.386 7.515-7.536v-51.872l12.38 18.071c2.934 4.283 9.465 4.283 12.399 0l12.38-18.071v51.915c.001 4.15 3.365 7.493 7.516 7.493z"/>
            <path d="m319.09 129.389c0-9.051-8.068-16.351-17.075-15.454l-71.966 7.195c-7.973.797-13.986 7.44-13.986 15.454v69.135c-3.2-1.419-6.687-2.155-10.187-2.155-13.834 0-25.13 11.212-25.212 25.065-.082 13.745 11.319 25.283 25.064 25.365 13.72 0 25.365-11.281 25.365-25.109v-92.301c0-.259.194-.473.451-.499l71.966-7.195c.291-.029.551.207.551.499v67.533c-3.072-1.362-6.464-2.133-10.034-2.154-13.746-.056-25.283 11.299-25.365 25.064-.082 13.804 11.413 25.365 25.216 25.365 13.834 0 25.129-11.212 25.212-25.064v-.001c0-.011-.001-.021-.001-.032 0-.004.001-.008.001-.012zm-113.211 109.575c-.02 0-.041 0-.062-.001-5.616-.033-10.158-4.63-10.124-10.246.033-5.595 4.595-10.124 10.184-10.124h.062c5.615.033 10.158 4.63 10.124 10.246-.033 5.596-4.596 10.125-10.184 10.125zm87.997-8.798c-5.576 0-10.22-4.67-10.186-10.246.031-5.478 4.694-10.256 10.246-10.124 5.615.033 10.158 4.63 10.124 10.246-.034 5.595-4.595 10.124-10.184 10.124z"/>
            <path d="m162.744 496.971h-58.181c-6.906 0-12.524-5.618-12.524-12.524v-36.515h290.132c4.151 0 7.515-3.365 7.515-7.515v-143.112c0-4.15-3.364-7.515-7.515-7.515h-61.806c-4.151 0-7.515 3.365-7.515 7.515s3.364 7.515 7.515 7.515h54.292v128.082h-300.755v-128.082h216.404c4.151 0 7.515-3.365 7.515-7.515s-3.364-7.515-7.515-7.515h-198.267v-262.236c0-6.906 5.618-12.524 12.524-12.524h58.181c4.15 0 7.515-3.365 7.515-7.515s-3.364-7.515-7.515-7.515h-58.181c-15.192 0-27.553 12.361-27.553 27.554v262.237h-10.622c-4.15 0-7.515 3.365-7.515 7.515v143.112c0 4.15 3.364 7.515 7.515 7.515h10.622v36.515c0 15.193 12.361 27.554 27.554 27.554h58.181c4.15 0 7.515-3.365 7.515-7.515-.001-4.152-3.365-7.516-7.516-7.516z"/>
            <path d="m453.089 99.883c-.169-1.711-.95-3.347-2.163-4.563l-93.119-93.119c-1.392-1.398-3.343-2.201-5.314-2.201h-159.69c-4.15 0-7.515 3.365-7.515 7.515s3.365 7.515 7.515 7.515h152.175v65.565c0 15.193 12.361 27.554 27.554 27.554h65.566v376.298c0 6.906-5.618 12.524-12.525 12.524h-232.77c-4.15 0-7.515 3.365-7.515 7.515s3.365 7.515 7.515 7.515h232.77c15.193 0 27.554-12.361 27.554-27.554v-383.813c0-.252-.013-.502-.038-.751zm-93.081-19.289v-54.938l67.463 67.462h-54.938c-6.907.001-12.525-5.617-12.525-12.524z"/>
        </g>
    </g>
</svg>